{
  "source": "C:\\Users\\Peter\\Desktop\\stuff\\MIUN\\quantitative_research\\video_compression\\videos\\BVI-HD\\BVI-HD_CDVL_videos\\ORIG\\CalmingWater_1920x1080_60fps.mp4",
  "output": "C:\\Users\\Peter\\Desktop\\stuff\\MIUN\\quantitative_research\\video_compression\\compressed_videos\\BVI-HD\\vp9\\2.5\\CalmingWater_1920x1080_60fps_vp9.webm",
  "codec": "vp9",
  "ok": "Input #0, mov,mp4,m4a,3gp,3g2,mj2, from 'C:\\Users\\Peter\\Desktop\\stuff\\MIUN\\quantitative_research\\video_compression\\videos\\BVI-HD\\BVI-HD_CDVL_videos\\ORIG\\CalmingWater_1920x1080_60fps.mp4':\n  Metadata:\n    major_brand     : isom\n    minor_version   : 512\n    compatible_brands: isomiso2avc1mp41\n    encoder         : Lavf54.28.101\n  Duration: 00:00:05.00, start: 0.000000, bitrate: 623787 kb/s\n  Stream #0:0[0x1](und): Video: h264 (High 4:4:4 Predictive) (avc1 / 0x31637661), yuv420p(progressive), 1920x1080, 623782 kb/s, 60 fps, 60 tbr, 60 tbn (default)\n    Metadata:\n      handler_name    : VideoHandler\n      vendor_id       : [0][0][0][0]\n[out#0/webm @ 0000018f21b49040] Codec AVOption b:a (set bitrate (in bits/s)) has not been used for any stream. The most likely reason is either wrong type (e.g. a video option with no video streams) or that it is a private option of some decoder which was not actually used for any stream.\nStream mapping:\n  Stream #0:0 -> #0:0 (h264 (native) -> vp9 (libvpx-vp9))\nPress [q] to stop, [?] for help\n[libvpx-vp9 @ 0000018f23c70640] v1.15.2-100-g40561f514\nOutput #0, webm, to 'C:\\Users\\Peter\\Desktop\\stuff\\MIUN\\quantitative_research\\video_compression\\compressed_videos\\BVI-HD\\vp9\\2.5\\CalmingWater_1920x1080_60fps_vp9.webm':\n  Metadata:\n    major_brand     : isom\n    minor_version   : 512\n    compatible_brands: isomiso2avc1mp41\n    encoder         : Lavf62.3.100\n  Stream #0:0(und): Video: vp9, yuv420p(tv, progressive), 1920x1080, q=2-31, 2500 kb/s, 60 fps, 1k tbn (default)\n    Metadata:\n      encoder         : Lavc62.11.100 libvpx-vp9\n      handler_name    : VideoHandler\n      vendor_id       : [0][0][0][0]\n    Side data:\n      cpb: bitrate max/min/avg: 0/0/0 buffer size: 2500000 vbv_delay: N/A\nframe=    0 fps=0.0 q=0.0 size=       0KiB time=N/A bitrate=N/A speed=N/A elapsed=0:00:00.53    \nframe=    3 fps=2.6 q=60.0 size=       1KiB time=00:00:00.05 bitrate= 101.3kbits/s speed=0.0425x elapsed=0:00:01.17    \nframe=    8 fps=4.7 q=63.0 size=       1KiB time=00:00:00.13 bitrate=  38.0kbits/s speed=0.0786x elapsed=0:00:01.69    \nframe=   12 fps=5.4 q=63.0 size=       1KiB time=00:00:00.20 bitrate=  25.3kbits/s speed=0.0895x elapsed=0:00:02.23    \nframe=   15 fps=5.4 q=63.0 size=       1KiB time=00:00:00.25 bitrate=  20.3kbits/s speed=0.0908x elapsed=0:00:02.75    \nframe=   19 fps=5.8 q=63.0 size=       1KiB time=00:00:00.31 bitrate=  16.0kbits/s speed=0.0967x elapsed=0:00:03.27    \nframe=   23 fps=6.0 q=63.0 size=       1KiB time=00:00:00.38 bitrate=  13.2kbits/s speed=0.101x elapsed=0:00:03.80    \nframe=   26 fps=6.0 q=63.0 size=       1KiB time=00:00:00.43 bitrate=  11.7kbits/s speed=0.0997x elapsed=0:00:04.34    \nframe=   30 fps=6.1 q=63.0 size=       1KiB time=00:00:00.50 bitrate=  10.1kbits/s speed=0.102x elapsed=0:00:04.88    \nframe=   34 fps=6.3 q=63.0 size=       1KiB time=00:00:00.56 bitrate=   8.9kbits/s speed=0.105x elapsed=0:00:05.41    \nframe=   36 fps=6.1 q=63.0 size=       1KiB time=00:00:00.60 bitrate=   8.4kbits/s speed=0.101x elapsed=0:00:05.93    \nframe=   40 fps=6.2 q=63.0 size=       1KiB time=00:00:00.66 bitrate=   7.6kbits/s speed=0.104x elapsed=0:00:06.44    \nframe=   43 fps=6.2 q=56.0 size=       1KiB time=00:00:00.71 bitrate=   7.1kbits/s speed=0.103x elapsed=0:00:06.97    \nframe=   47 fps=6.3 q=63.0 size=       1KiB time=00:00:00.78 bitrate=   6.5kbits/s speed=0.104x elapsed=0:00:07.51    \nframe=   50 fps=6.2 q=63.0 size=       1KiB time=00:00:00.83 bitrate=   6.1kbits/s speed=0.104x elapsed=0:00:08.04    \nframe=   54 fps=6.3 q=63.0 size=       1KiB time=00:00:00.90 bitrate=   5.6kbits/s speed=0.105x elapsed=0:00:08.59    \nframe=   57 fps=6.2 q=63.0 size=       1KiB time=00:00:00.95 bitrate=   5.3kbits/s speed=0.104x elapsed=0:00:09.13    \nframe=   60 fps=6.2 q=63.0 size=       1KiB time=00:00:01.00 bitrate=   5.1kbits/s speed=0.103x elapsed=0:00:09.67    \nframe=   64 fps=6.3 q=63.0 size=       1KiB time=00:00:01.06 bitrate=   4.7kbits/s speed=0.104x elapsed=0:00:10.21    \nframe=   67 fps=6.2 q=55.0 size=       1KiB time=00:00:01.11 bitrate=   4.5kbits/s speed=0.104x elapsed=0:00:10.76    \nframe=   71 fps=6.3 q=63.0 size=       1KiB time=00:00:01.18 bitrate=   4.3kbits/s speed=0.105x elapsed=0:00:11.28    \nframe=   74 fps=6.2 q=63.0 size=       1KiB time=00:00:01.23 bitrate=   4.1kbits/s speed=0.104x elapsed=0:00:11.84    \nframe=   78 fps=6.3 q=63.0 size=       1KiB time=00:00:01.30 bitrate=   3.9kbits/s speed=0.105x elapsed=0:00:12.37    \nframe=   81 fps=6.3 q=63.0 size=       1KiB time=00:00:01.35 bitrate=   3.8kbits/s speed=0.105x elapsed=0:00:12.91    \nframe=   84 fps=6.2 q=63.0 size=       1KiB time=00:00:01.40 bitrate=   3.6kbits/s speed=0.104x elapsed=0:00:13.44    \nframe=   87 fps=6.2 q=63.0 size=       1KiB time=00:00:01.45 bitrate=   3.5kbits/s speed=0.104x elapsed=0:00:13.97    \nframe=   90 fps=6.2 q=63.0 size=       1KiB time=00:00:01.50 bitrate=   3.4kbits/s speed=0.103x elapsed=0:00:14.49    \nframe=   94 fps=6.3 q=63.0 size=       1KiB time=00:00:01.56 bitrate=   3.2kbits/s speed=0.104x elapsed=0:00:15.00    \nframe=   97 fps=6.2 q=55.0 size=       1KiB time=00:00:01.61 bitrate=   3.1kbits/s speed=0.104x elapsed=0:00:15.52    \nframe=  101 fps=6.3 q=63.0 size=       1KiB time=00:00:01.68 bitrate=   3.0kbits/s speed=0.105x elapsed=0:00:16.04    \nframe=  104 fps=6.3 q=63.0 size=       1KiB time=00:00:01.73 bitrate=   2.9kbits/s speed=0.105x elapsed=0:00:16.57    \nframe=  108 fps=6.3 q=63.0 size=       1KiB time=00:00:01.80 bitrate=   2.8kbits/s speed=0.105x elapsed=0:00:17.11    \nframe=  112 fps=6.3 q=63.0 size=       1KiB time=00:00:01.86 bitrate=   2.7kbits/s speed=0.106x elapsed=0:00:17.66    \nframe=  115 fps=6.3 q=55.0 size=       1KiB time=00:00:01.91 bitrate=   2.6kbits/s speed=0.105x elapsed=0:00:18.19    \nframe=  119 fps=6.4 q=63.0 size=       1KiB time=00:00:01.98 bitrate=   2.6kbits/s speed=0.106x elapsed=0:00:18.72    \nframe=  122 fps=6.3 q=63.0 size=       1KiB time=00:00:02.03 bitrate=   2.5kbits/s speed=0.106x elapsed=0:00:19.25    \nframe=  126 fps=6.4 q=63.0 size=       1KiB time=00:00:02.10 bitrate=   2.4kbits/s speed=0.106x elapsed=0:00:19.77    \nframe=  129 fps=6.3 q=54.0 size=       1KiB time=00:00:02.15 bitrate=   2.4kbits/s speed=0.106x elapsed=0:00:20.31    \nframe=  134 fps=6.4 q=63.0 size=     768KiB time=00:00:02.23 bitrate=2817.1kbits/s speed=0.107x elapsed=0:00:20.85    \nframe=  137 fps=6.4 q=63.0 size=     768KiB time=00:00:02.28 bitrate=2755.4kbits/s speed=0.107x elapsed=0:00:21.40    \nframe=  141 fps=6.4 q=63.0 size=     768KiB time=00:00:02.35 bitrate=2677.2kbits/s speed=0.107x elapsed=0:00:21.92    \nframe=  145 fps=6.5 q=63.0 size=     768KiB time=00:00:02.41 bitrate=2603.4kbits/s speed=0.108x elapsed=0:00:22.43    \nframe=  148 fps=6.4 q=63.0 size=     768KiB time=00:00:02.46 bitrate=2550.6kbits/s speed=0.107x elapsed=0:00:22.96    \nframe=  151 fps=6.4 q=63.0 size=     768KiB time=00:00:02.51 bitrate=2499.9kbits/s speed=0.107x elapsed=0:00:23.51    \nframe=  155 fps=6.4 q=63.0 size=     768KiB time=00:00:02.58 bitrate=2435.4kbits/s speed=0.107x elapsed=0:00:24.05    \nframe=  158 fps=6.4 q=55.0 size=     768KiB time=00:00:02.63 bitrate=2389.2kbits/s speed=0.107x elapsed=0:00:24.60    \nframe=  162 fps=6.4 q=63.0 size=     768KiB time=00:00:02.70 bitrate=2330.2kbits/s speed=0.107x elapsed=0:00:25.12    \nframe=  166 fps=6.5 q=63.0 size=     768KiB time=00:00:02.75 bitrate=2287.8kbits/s speed=0.107x elapsed=0:00:25.62    \nframe=  169 fps=6.5 q=63.0 size=     768KiB time=00:00:02.81 bitrate=2233.7kbits/s speed=0.108x elapsed=0:00:26.17    \nframe=  173 fps=6.5 q=63.0 size=     768KiB time=00:00:02.88 bitrate=2182.0kbits/s speed=0.108x elapsed=0:00:26.72    \nframe=  175 fps=6.4 q=63.0 size=     768KiB time=00:00:02.91 bitrate=2157.1kbits/s speed=0.107x elapsed=0:00:27.23    \nframe=  180 fps=6.5 q=63.0 size=     768KiB time=00:00:03.00 bitrate=2097.2kbits/s speed=0.108x elapsed=0:00:27.76    \nframe=  183 fps=6.5 q=63.0 size=     768KiB time=00:00:03.05 bitrate=2062.8kbits/s speed=0.108x elapsed=0:00:28.28    \nframe=  187 fps=6.5 q=63.0 size=     768KiB time=00:00:03.11 bitrate=2018.6kbits/s speed=0.108x elapsed=0:00:28.81    \nframe=  191 fps=6.5 q=63.0 size=     768KiB time=00:00:03.18 bitrate=1976.4kbits/s speed=0.108x elapsed=0:00:29.38    \nframe=  195 fps=6.5 q=63.0 size=     768KiB time=00:00:03.25 bitrate=1935.8kbits/s speed=0.109x elapsed=0:00:29.91    \nframe=  199 fps=6.5 q=63.0 size=     768KiB time=00:00:03.31 bitrate=1896.9kbits/s speed=0.109x elapsed=0:00:30.45    \nframe=  202 fps=6.5 q=63.0 size=     768KiB time=00:00:03.36 bitrate=1868.7kbits/s speed=0.109x elapsed=0:00:30.98    \nframe=  207 fps=6.6 q=63.0 size=     768KiB time=00:00:03.45 bitrate=1823.6kbits/s speed=0.109x elapsed=0:00:31.52    \nframe=  211 fps=6.6 q=63.0 size=     768KiB time=00:00:03.51 bitrate=1789.0kbits/s speed=0.11x elapsed=0:00:32.06    \nframe=  214 fps=6.6 q=63.0 size=     768KiB time=00:00:03.56 bitrate=1764.0kbits/s speed=0.109x elapsed=0:00:32.59    \nframe=  219 fps=6.6 q=63.0 size=     768KiB time=00:00:03.65 bitrate=1723.7kbits/s speed=0.11x elapsed=0:00:33.12    \nframe=  223 fps=6.6 q=63.0 size=     768KiB time=00:00:03.71 bitrate=1692.8kbits/s speed=0.11x elapsed=0:00:33.66    \nframe=  226 fps=6.6 q=63.0 size=     768KiB time=00:00:03.76 bitrate=1670.3kbits/s speed=0.11x elapsed=0:00:34.20    \nframe=  231 fps=6.6 q=63.0 size=     768KiB time=00:00:03.85 bitrate=1634.1kbits/s speed=0.111x elapsed=0:00:34.73    \nframe=  235 fps=6.7 q=63.0 size=     768KiB time=00:00:03.91 bitrate=1606.3kbits/s speed=0.111x elapsed=0:00:35.27    \nframe=  238 fps=6.6 q=63.0 size=     768KiB time=00:00:03.96 bitrate=1586.1kbits/s speed=0.111x elapsed=0:00:35.79    \nframe=  242 fps=6.7 q=63.0 size=     768KiB time=00:00:04.03 bitrate=1559.9kbits/s speed=0.111x elapsed=0:00:36.31    \nframe=  245 fps=6.7 q=63.0 size=     768KiB time=00:00:04.08 bitrate=1540.8kbits/s speed=0.111x elapsed=0:00:36.83    \nframe=  250 fps=6.7 q=63.0 size=     768KiB time=00:00:04.16 bitrate=1509.9kbits/s speed=0.112x elapsed=0:00:37.35    \nframe=  255 fps=6.7 q=63.0 size=     768KiB time=00:00:04.25 bitrate=1480.3kbits/s speed=0.112x elapsed=0:00:37.88    \nframe=  258 fps=6.7 q=63.0 size=    1536KiB time=00:00:04.30 bitrate=2926.3kbits/s speed=0.112x elapsed=0:00:38.41    \nframe=  264 fps=6.8 q=63.0 size=    1536KiB time=00:00:04.40 bitrate=2859.8kbits/s speed=0.113x elapsed=0:00:38.92    \nframe=  268 fps=6.8 q=63.0 size=    1536KiB time=00:00:04.46 bitrate=2817.1kbits/s speed=0.113x elapsed=0:00:39.46    \nframe=  272 fps=6.8 q=63.0 size=    1536KiB time=00:00:04.53 bitrate=2775.6kbits/s speed=0.113x elapsed=0:00:40.00    \nframe=  276 fps=6.8 q=63.0 size=    1536KiB time=00:00:04.60 bitrate=2735.4kbits/s speed=0.113x elapsed=0:00:40.52    \nframe=  276 fps=6.7 q=63.0 size=    1536KiB time=00:00:04.60 bitrate=2735.4kbits/s speed=0.112x elapsed=0:00:41.06    \nframe=  276 fps=6.6 q=63.0 size=    1536KiB time=00:00:04.60 bitrate=2735.4kbits/s speed=0.111x elapsed=0:00:41.60    \nframe=  276 fps=6.5 q=63.0 size=    1536KiB time=00:00:04.60 bitrate=2735.4kbits/s speed=0.109x elapsed=0:00:42.14    \nframe=  276 fps=6.5 q=63.0 size=    1536KiB time=00:00:04.60 bitrate=2735.4kbits/s speed=0.108x elapsed=0:00:42.66    \nframe=  276 fps=6.4 q=63.0 size=    1536KiB time=00:00:04.60 bitrate=2735.4kbits/s speed=0.106x elapsed=0:00:43.19    \n[out#0/webm @ 0000018f21b49040] video:1901KiB audio:0KiB subtitle:0KiB other streams:0KiB global headers:0KiB muxing overhead: 0.145967%\nframe=  300 fps=6.9 q=63.0 Lsize=    1904KiB time=00:00:05.00 bitrate=3119.8kbits/s speed=0.115x elapsed=0:00:43.49    \n",
  "seconds": 43.76422142982483,
  "probe_out": {}
}